<mxfile host="app.diagrams.net" modified="2021-11-10T18:50:41.346Z" agent="5.0 (Macintosh; Intel Mac OS X 10_15_7) AppleWebKit/537.36 (KHTML, like Gecko) Chrome/95.0.4638.69 Safari/537.36" etag="m1nTeOYJyx6LDHjdZ-Ow" version="15.7.1" type="github">
  <diagram name="Page-1" id="9f46799a-70d6-7492-0946-bef42562c5a5">
    <mxGraphModel dx="3343" dy="1873" grid="1" gridSize="10" guides="1" tooltips="1" connect="1" arrows="1" fold="1" page="1" pageScale="1" pageWidth="1100" pageHeight="850" background="none" math="0" shadow="0">
      <root>
        <mxCell id="0" />
        <mxCell id="1" parent="0" />
        <mxCell id="c9tINvJXnd8KNDeGOfRy-2" value="Language models" style="shape=cube;whiteSpace=wrap;html=1;boundedLbl=1;backgroundOutline=1;darkOpacity=0.05;darkOpacity2=0.1;" parent="1" vertex="1">
          <mxGeometry x="590" y="120" width="120" height="80" as="geometry" />
        </mxCell>
        <mxCell id="c9tINvJXnd8KNDeGOfRy-7" value="Acoustic model&lt;br&gt;(patient 1)" style="shape=cube;whiteSpace=wrap;html=1;boundedLbl=1;backgroundOutline=1;darkOpacity=0.05;darkOpacity2=0.1;" parent="1" vertex="1">
          <mxGeometry x="310" y="510" width="120" height="80" as="geometry" />
        </mxCell>
        <mxCell id="c9tINvJXnd8KNDeGOfRy-11" value="" style="shape=flexArrow;endArrow=classic;startArrow=classic;html=1;" parent="1" edge="1">
          <mxGeometry width="50" height="50" relative="1" as="geometry">
            <mxPoint x="-160" y="485" as="sourcePoint" />
            <mxPoint x="300" y="560" as="targetPoint" />
            <Array as="points" />
          </mxGeometry>
        </mxCell>
        <mxCell id="c9tINvJXnd8KNDeGOfRy-12" value="continuous learning&amp;nbsp;&lt;br&gt;" style="edgeLabel;html=1;align=center;verticalAlign=middle;resizable=0;points=[];rotation=10;" parent="c9tINvJXnd8KNDeGOfRy-11" vertex="1" connectable="0">
          <mxGeometry x="0.1938" y="-5" relative="1" as="geometry">
            <mxPoint x="-63" y="-10" as="offset" />
          </mxGeometry>
        </mxCell>
        <mxCell id="c9tINvJXnd8KNDeGOfRy-17" value="Language models" style="shape=cube;whiteSpace=wrap;html=1;boundedLbl=1;backgroundOutline=1;darkOpacity=0.05;darkOpacity2=0.1;" parent="1" vertex="1">
          <mxGeometry x="590" y="150" width="120" height="80" as="geometry" />
        </mxCell>
        <mxCell id="c9tINvJXnd8KNDeGOfRy-18" value="Language models" style="shape=cube;whiteSpace=wrap;html=1;boundedLbl=1;backgroundOutline=1;darkOpacity=0.05;darkOpacity2=0.1;" parent="1" vertex="1">
          <mxGeometry x="590" y="180" width="120" height="80" as="geometry" />
        </mxCell>
        <mxCell id="c9tINvJXnd8KNDeGOfRy-19" value="Language models" style="shape=cube;whiteSpace=wrap;html=1;boundedLbl=1;backgroundOutline=1;darkOpacity=0.05;darkOpacity2=0.1;" parent="1" vertex="1">
          <mxGeometry x="590" y="210" width="120" height="80" as="geometry" />
        </mxCell>
        <mxCell id="c9tINvJXnd8KNDeGOfRy-22" value="Medical Conversation Dialogs" style="shape=note;whiteSpace=wrap;html=1;backgroundOutline=1;darkOpacity=0.05;" parent="1" vertex="1">
          <mxGeometry x="1030" y="60" width="80" height="100" as="geometry" />
        </mxCell>
        <mxCell id="c9tINvJXnd8KNDeGOfRy-23" value="Ask a Doctor datasets" style="shape=note;whiteSpace=wrap;html=1;backgroundOutline=1;darkOpacity=0.05;" parent="1" vertex="1">
          <mxGeometry x="1120" y="60" width="80" height="100" as="geometry" />
        </mxCell>
        <mxCell id="c9tINvJXnd8KNDeGOfRy-24" value="Other medical Terminology and drug names" style="shape=note;whiteSpace=wrap;html=1;backgroundOutline=1;darkOpacity=0.05;" parent="1" vertex="1">
          <mxGeometry x="1210" y="60" width="80" height="100" as="geometry" />
        </mxCell>
        <mxCell id="c9tINvJXnd8KNDeGOfRy-25" value="" style="shape=flexArrow;endArrow=classic;startArrow=classic;html=1;" parent="1" edge="1">
          <mxGeometry width="50" height="50" relative="1" as="geometry">
            <mxPoint x="720" y="220" as="sourcePoint" />
            <mxPoint x="1010" y="220" as="targetPoint" />
          </mxGeometry>
        </mxCell>
        <mxCell id="c9tINvJXnd8KNDeGOfRy-29" value="&lt;font style=&quot;font-size: 36px&quot;&gt;Cleaned Data !&lt;/font&gt;" style="ellipse;shape=cloud;whiteSpace=wrap;html=1;" parent="1" vertex="1">
          <mxGeometry x="990" y="140" width="400" height="380" as="geometry" />
        </mxCell>
        <mxCell id="c9tINvJXnd8KNDeGOfRy-33" value="" style="endArrow=classic;html=1;exitX=0;exitY=0;exitDx=50;exitDy=0;exitPerimeter=0;entryX=0;entryY=0;entryDx=120;entryDy=50;entryPerimeter=0;" parent="1" source="c9tINvJXnd8KNDeGOfRy-2" edge="1">
          <mxGeometry width="50" height="50" relative="1" as="geometry">
            <mxPoint x="470" y="400" as="sourcePoint" />
            <mxPoint x="450" y="120" as="targetPoint" />
          </mxGeometry>
        </mxCell>
        <mxCell id="c9tINvJXnd8KNDeGOfRy-36" value="&lt;h1&gt;&lt;span&gt;The Flow:&lt;/span&gt;&lt;/h1&gt;&lt;h1&gt;&lt;span style=&quot;font-size: 12px ; font-weight: normal&quot;&gt;When a user registers and requests Transcription, an Acoustic model will be generated. Upon the speech request, this service requires two Models. A model unique model which is associated with the user&#39;s Acoustic, and another which already is chosen based on the Doctors&#39; Speciality.&amp;nbsp;&lt;/span&gt;&lt;br&gt;&lt;/h1&gt;&lt;p&gt;&lt;br&gt;&lt;/p&gt;" style="text;html=1;strokeColor=none;fillColor=none;spacing=5;spacingTop=-20;whiteSpace=wrap;overflow=hidden;rounded=0;" parent="1" vertex="1">
          <mxGeometry x="880" y="-222.5" width="270" height="250" as="geometry" />
        </mxCell>
        <mxCell id="c9tINvJXnd8KNDeGOfRy-37" value="&lt;h1&gt;&lt;span&gt;Training&amp;nbsp; Users&#39; Acoustic models:&amp;nbsp;&lt;/span&gt;&lt;/h1&gt;&lt;h1&gt;&lt;span style=&quot;font-size: 12px ; font-weight: 400&quot;&gt;Each acoustic model should either be trained with or without a language model. For simplicity,&amp;nbsp;&lt;/span&gt;&lt;/h1&gt;&lt;h1&gt;&lt;span style=&quot;font-size: 12px ; font-weight: 400&quot;&gt;1) (Unsupervised) we train an acoustic model through an unsupervised approach which is not providing the original transcript for the users&#39; audio.&amp;nbsp;&lt;/span&gt;&lt;/h1&gt;&lt;h1&gt;&lt;span style=&quot;font-size: 12px ; font-weight: 400&quot;&gt;2) (Supervised) An alternative approach is to create a unique language model that contains a corpus of the text provided by users&#39; voices.&amp;nbsp;&lt;/span&gt;&lt;/h1&gt;&lt;h1&gt;&lt;br&gt;&lt;/h1&gt;" style="text;html=1;strokeColor=none;fillColor=none;spacing=5;spacingTop=-20;whiteSpace=wrap;overflow=hidden;rounded=0;" parent="1" vertex="1">
          <mxGeometry x="-750" y="330" width="430" height="395" as="geometry" />
        </mxCell>
        <mxCell id="c9tINvJXnd8KNDeGOfRy-61" value="" style="endArrow=classic;startArrow=none;html=1;" parent="1" edge="1" source="c9tINvJXnd8KNDeGOfRy-62">
          <mxGeometry width="50" height="50" relative="1" as="geometry">
            <mxPoint x="-340" y="250" as="sourcePoint" />
            <mxPoint x="-390" y="-50" as="targetPoint" />
            <Array as="points" />
          </mxGeometry>
        </mxCell>
        <mxCell id="c9tINvJXnd8KNDeGOfRy-65" value="" style="endArrow=none;dashed=1;html=1;dashPattern=1 3;strokeWidth=2;exitX=0;exitY=0;exitDx=50;exitDy=0;exitPerimeter=0;" parent="1" source="c9tINvJXnd8KNDeGOfRy-7" edge="1">
          <mxGeometry width="50" height="50" relative="1" as="geometry">
            <mxPoint x="610" y="290" as="sourcePoint" />
            <mxPoint x="380" y="170" as="targetPoint" />
          </mxGeometry>
        </mxCell>
        <mxCell id="c9tINvJXnd8KNDeGOfRy-66" value="" style="endArrow=none;dashed=1;html=1;entryX=0;entryY=0;entryDx=70;entryDy=80;entryPerimeter=0;" parent="1" edge="1">
          <mxGeometry width="50" height="50" relative="1" as="geometry">
            <mxPoint x="395" y="70" as="sourcePoint" />
            <mxPoint x="379.99999999999955" y="-65" as="targetPoint" />
          </mxGeometry>
        </mxCell>
        <mxCell id="lw1P8CRCG-Huqcx5LMZL-2" value="Small Audio&lt;br&gt;clip" style="ellipse;whiteSpace=wrap;html=1;aspect=fixed;" vertex="1" parent="1">
          <mxGeometry x="-60" y="435" width="50" height="50" as="geometry" />
        </mxCell>
        <mxCell id="lw1P8CRCG-Huqcx5LMZL-3" value="Larger version of Audio&amp;nbsp;" style="ellipse;whiteSpace=wrap;html=1;aspect=fixed;" vertex="1" parent="1">
          <mxGeometry x="200" y="450" width="85" height="85" as="geometry" />
        </mxCell>
        <mxCell id="lw1P8CRCG-Huqcx5LMZL-11" value="Training On" style="edgeLabel;html=1;align=center;verticalAlign=middle;resizable=0;points=[];" vertex="1" connectable="0" parent="1">
          <mxGeometry x="869.9964705882356" y="230.00000000000023" as="geometry" />
        </mxCell>
        <mxCell id="lw1P8CRCG-Huqcx5LMZL-12" value="A language model&lt;br&gt;With a single Corpus of users&#39; script" style="shape=cube;whiteSpace=wrap;html=1;boundedLbl=1;backgroundOutline=1;darkOpacity=0.05;darkOpacity2=0.1;" vertex="1" parent="1">
          <mxGeometry x="700" y="510" width="120" height="80" as="geometry" />
        </mxCell>
        <mxCell id="lw1P8CRCG-Huqcx5LMZL-14" value="Augmentation / Cloning" style="edgeLabel;html=1;align=center;verticalAlign=middle;resizable=0;points=[];rotation=10;" vertex="1" connectable="0" parent="1">
          <mxGeometry x="59.99781986429119" y="535.0011491008456" as="geometry">
            <mxPoint x="17.789163757952917" y="-62.52635966368692" as="offset" />
          </mxGeometry>
        </mxCell>
        <mxCell id="lw1P8CRCG-Huqcx5LMZL-18" value="" style="shape=flexArrow;endArrow=classic;startArrow=classic;html=1;width=11;endSize=6.67;endWidth=7;startWidth=7;startSize=4.33;" edge="1" parent="1">
          <mxGeometry width="50" height="50" relative="1" as="geometry">
            <mxPoint x="460" y="549.4100000000001" as="sourcePoint" />
            <mxPoint x="680" y="549.4100000000001" as="targetPoint" />
          </mxGeometry>
        </mxCell>
        <mxCell id="lw1P8CRCG-Huqcx5LMZL-19" value="Supervised Training" style="edgeLabel;html=1;align=center;verticalAlign=middle;resizable=0;points=[];" vertex="1" connectable="0" parent="lw1P8CRCG-Huqcx5LMZL-18">
          <mxGeometry y="-1" relative="1" as="geometry">
            <mxPoint x="-11" y="2" as="offset" />
          </mxGeometry>
        </mxCell>
        <mxCell id="lw1P8CRCG-Huqcx5LMZL-20" value="&lt;span&gt;&lt;font style=&quot;font-size: 18px&quot;&gt;(IBM) Speech Recognition Engine&lt;/font&gt;&lt;/span&gt;" style="outlineConnect=0;dashed=0;verticalLabelPosition=bottom;verticalAlign=top;align=center;html=1;shape=mxgraph.aws3.emr_engine;fillColor=#F58534;gradientColor=none;" vertex="1" parent="1">
          <mxGeometry x="330" y="80" width="110" height="60" as="geometry" />
        </mxCell>
        <mxCell id="lw1P8CRCG-Huqcx5LMZL-22" value="&lt;br&gt;&lt;br&gt;Doctor" style="shape=actor;whiteSpace=wrap;html=1;" vertex="1" parent="1">
          <mxGeometry x="-440" y="-125" width="40" height="60" as="geometry" />
        </mxCell>
        <mxCell id="lw1P8CRCG-Huqcx5LMZL-23" value="&lt;br&gt;&lt;br&gt;Patient" style="shape=actor;whiteSpace=wrap;html=1;" vertex="1" parent="1">
          <mxGeometry x="-450" y="220" width="40" height="60" as="geometry" />
        </mxCell>
        <mxCell id="lw1P8CRCG-Huqcx5LMZL-27" value="A Real-Time Domain specific &lt;br&gt;Speech recognition&lt;br&gt;that relearns as you speak" style="text;html=1;align=center;verticalAlign=middle;resizable=0;points=[];autosize=1;strokeColor=none;fillColor=none;" vertex="1" parent="1">
          <mxGeometry x="-490" y="60" width="170" height="50" as="geometry" />
        </mxCell>
        <mxCell id="lw1P8CRCG-Huqcx5LMZL-28" value="" style="shadow=0;dashed=0;html=1;strokeColor=none;fillColor=#4495D1;labelPosition=center;verticalLabelPosition=bottom;verticalAlign=top;align=center;outlineConnect=0;shape=mxgraph.veeam.audio_file;" vertex="1" parent="1">
          <mxGeometry x="-110" y="425" width="36.8" height="50.8" as="geometry" />
        </mxCell>
        <mxCell id="lw1P8CRCG-Huqcx5LMZL-39" value="Acoustic model&lt;br&gt;(Dcotro 1)" style="shape=cube;whiteSpace=wrap;html=1;boundedLbl=1;backgroundOutline=1;darkOpacity=0.05;darkOpacity2=0.1;" vertex="1" parent="1">
          <mxGeometry x="310" y="-290" width="120" height="80" as="geometry" />
        </mxCell>
        <mxCell id="lw1P8CRCG-Huqcx5LMZL-40" value="" style="shape=flexArrow;endArrow=classic;startArrow=classic;html=1;" edge="1" parent="1">
          <mxGeometry width="50" height="50" relative="1" as="geometry">
            <mxPoint x="-160" y="-195" as="sourcePoint" />
            <mxPoint x="300" y="-240" as="targetPoint" />
            <Array as="points" />
          </mxGeometry>
        </mxCell>
        <mxCell id="lw1P8CRCG-Huqcx5LMZL-41" value="continuous learning&amp;nbsp;&lt;br&gt;" style="edgeLabel;html=1;align=center;verticalAlign=middle;resizable=0;points=[];rotation=-5;" vertex="1" connectable="0" parent="lw1P8CRCG-Huqcx5LMZL-40">
          <mxGeometry x="0.1938" y="-5" relative="1" as="geometry">
            <mxPoint x="-26" y="-8" as="offset" />
          </mxGeometry>
        </mxCell>
        <mxCell id="lw1P8CRCG-Huqcx5LMZL-42" value="Small Audio&lt;br&gt;clip" style="ellipse;whiteSpace=wrap;html=1;aspect=fixed;" vertex="1" parent="1">
          <mxGeometry x="-60" y="-275" width="50" height="50" as="geometry" />
        </mxCell>
        <mxCell id="lw1P8CRCG-Huqcx5LMZL-43" value="Larger version of Audio&amp;nbsp;" style="ellipse;whiteSpace=wrap;html=1;aspect=fixed;" vertex="1" parent="1">
          <mxGeometry x="200" y="-330" width="85" height="85" as="geometry" />
        </mxCell>
        <mxCell id="lw1P8CRCG-Huqcx5LMZL-44" value="A language model&lt;br&gt;With a single Corpus of users&#39; script" style="shape=cube;whiteSpace=wrap;html=1;boundedLbl=1;backgroundOutline=1;darkOpacity=0.05;darkOpacity2=0.1;" vertex="1" parent="1">
          <mxGeometry x="700" y="-290" width="120" height="80" as="geometry" />
        </mxCell>
        <mxCell id="lw1P8CRCG-Huqcx5LMZL-45" value="Augmentation / Cloning" style="edgeLabel;html=1;align=center;verticalAlign=middle;resizable=0;points=[];rotation=-10;" vertex="1" connectable="0" parent="1">
          <mxGeometry x="79.99781986429119" y="-214.99885089915438" as="geometry">
            <mxPoint x="17.789163757952917" y="-62.52635966368692" as="offset" />
          </mxGeometry>
        </mxCell>
        <mxCell id="lw1P8CRCG-Huqcx5LMZL-46" value="" style="shape=flexArrow;endArrow=classic;startArrow=classic;html=1;width=11;endSize=6.67;endWidth=7;startWidth=7;startSize=4.33;" edge="1" parent="1">
          <mxGeometry width="50" height="50" relative="1" as="geometry">
            <mxPoint x="460" y="-250.58999999999992" as="sourcePoint" />
            <mxPoint x="680" y="-250.58999999999992" as="targetPoint" />
          </mxGeometry>
        </mxCell>
        <mxCell id="lw1P8CRCG-Huqcx5LMZL-47" value="Supervised Training" style="edgeLabel;html=1;align=center;verticalAlign=middle;resizable=0;points=[];" vertex="1" connectable="0" parent="lw1P8CRCG-Huqcx5LMZL-46">
          <mxGeometry y="-1" relative="1" as="geometry">
            <mxPoint x="-11" y="2" as="offset" />
          </mxGeometry>
        </mxCell>
        <mxCell id="lw1P8CRCG-Huqcx5LMZL-48" value="" style="shadow=0;dashed=0;html=1;strokeColor=none;fillColor=#4495D1;labelPosition=center;verticalLabelPosition=bottom;verticalAlign=top;align=center;outlineConnect=0;shape=mxgraph.veeam.audio_file;" vertex="1" parent="1">
          <mxGeometry x="-110" y="-285" width="36.8" height="50.8" as="geometry" />
        </mxCell>
        <mxCell id="lw1P8CRCG-Huqcx5LMZL-54" value="" style="shape=flexArrow;endArrow=classic;startArrow=classic;html=1;" edge="1" parent="1">
          <mxGeometry width="50" height="50" relative="1" as="geometry">
            <mxPoint x="-160" y="-50" as="sourcePoint" />
            <mxPoint x="300" y="-95" as="targetPoint" />
            <Array as="points" />
          </mxGeometry>
        </mxCell>
        <mxCell id="lw1P8CRCG-Huqcx5LMZL-55" value="Using first conversation for training" style="edgeLabel;html=1;align=center;verticalAlign=middle;resizable=0;points=[];rotation=-5;" vertex="1" connectable="0" parent="lw1P8CRCG-Huqcx5LMZL-54">
          <mxGeometry x="0.1938" y="-5" relative="1" as="geometry">
            <mxPoint x="-46" y="-8" as="offset" />
          </mxGeometry>
        </mxCell>
        <mxCell id="lw1P8CRCG-Huqcx5LMZL-66" value="" style="endArrow=none;dashed=1;html=1;entryX=0;entryY=0;entryDx=70;entryDy=80;entryPerimeter=0;" edge="1" parent="1" target="lw1P8CRCG-Huqcx5LMZL-39">
          <mxGeometry width="50" height="50" relative="1" as="geometry">
            <mxPoint x="404.99999999999955" y="80" as="sourcePoint" />
            <mxPoint x="389.99999999999955" y="-55" as="targetPoint" />
          </mxGeometry>
        </mxCell>
        <mxCell id="lw1P8CRCG-Huqcx5LMZL-67" value="Acoustic model&lt;br&gt;(Dcotro 1)" style="shape=cube;whiteSpace=wrap;html=1;boundedLbl=1;backgroundOutline=1;darkOpacity=0.05;darkOpacity2=0.1;" vertex="1" parent="1">
          <mxGeometry x="320" y="320" width="120" height="80" as="geometry" />
        </mxCell>
        <mxCell id="lw1P8CRCG-Huqcx5LMZL-68" value="" style="shape=flexArrow;endArrow=classic;startArrow=classic;html=1;" edge="1" parent="1">
          <mxGeometry width="50" height="50" relative="1" as="geometry">
            <mxPoint x="-160" y="320" as="sourcePoint" />
            <mxPoint x="300" y="370" as="targetPoint" />
            <Array as="points" />
          </mxGeometry>
        </mxCell>
        <mxCell id="lw1P8CRCG-Huqcx5LMZL-69" value="Using first conversation for training" style="edgeLabel;html=1;align=center;verticalAlign=middle;resizable=0;points=[];rotation=-5;" vertex="1" connectable="0" parent="lw1P8CRCG-Huqcx5LMZL-68">
          <mxGeometry x="0.1938" y="-5" relative="1" as="geometry">
            <mxPoint x="-46" y="-8" as="offset" />
          </mxGeometry>
        </mxCell>
        <mxCell id="lw1P8CRCG-Huqcx5LMZL-70" value="" style="endArrow=none;dashed=1;html=1;dashPattern=1 3;strokeWidth=2;" edge="1" parent="1" source="lw1P8CRCG-Huqcx5LMZL-67">
          <mxGeometry width="50" height="50" relative="1" as="geometry">
            <mxPoint x="369.99999999999955" y="520" as="sourcePoint" />
            <mxPoint x="400" y="170" as="targetPoint" />
          </mxGeometry>
        </mxCell>
        <mxCell id="c9tINvJXnd8KNDeGOfRy-62" value="" style="triangle;whiteSpace=wrap;html=1;rotation=15;" parent="1" vertex="1">
          <mxGeometry x="-40" y="10" width="60" height="50" as="geometry" />
        </mxCell>
        <mxCell id="lw1P8CRCG-Huqcx5LMZL-73" value="" style="endArrow=none;startArrow=classic;html=1;" edge="1" parent="1" target="c9tINvJXnd8KNDeGOfRy-62">
          <mxGeometry width="50" height="50" relative="1" as="geometry">
            <mxPoint x="-390" y="260" as="sourcePoint" />
            <mxPoint x="-350" y="-40" as="targetPoint" />
            <Array as="points">
              <mxPoint x="330" y="110" />
            </Array>
          </mxGeometry>
        </mxCell>
        <mxCell id="lw1P8CRCG-Huqcx5LMZL-75" value="&lt;font style=&quot;font-size: 18px&quot;&gt;Doctor Speciality Language Models&lt;/font&gt;" style="text;html=1;align=center;verticalAlign=middle;resizable=0;points=[];autosize=1;strokeColor=none;fillColor=none;" vertex="1" parent="1">
          <mxGeometry x="510" y="70" width="300" height="20" as="geometry" />
        </mxCell>
        <mxCell id="lw1P8CRCG-Huqcx5LMZL-76" value="Supervised" style="text;html=1;align=center;verticalAlign=middle;resizable=0;points=[];autosize=1;strokeColor=none;fillColor=none;fontSize=18;" vertex="1" parent="1">
          <mxGeometry x="-280" y="-180" width="110" height="30" as="geometry" />
        </mxCell>
        <mxCell id="lw1P8CRCG-Huqcx5LMZL-78" value="Supervised" style="text;html=1;align=center;verticalAlign=middle;resizable=0;points=[];autosize=1;strokeColor=none;fillColor=none;fontSize=18;" vertex="1" parent="1">
          <mxGeometry x="-280" y="460" width="110" height="30" as="geometry" />
        </mxCell>
        <mxCell id="lw1P8CRCG-Huqcx5LMZL-79" value="Unsupervised" style="text;html=1;align=center;verticalAlign=middle;resizable=0;points=[];autosize=1;strokeColor=none;fillColor=none;fontSize=18;" vertex="1" parent="1">
          <mxGeometry x="-290" y="-90" width="130" height="30" as="geometry" />
        </mxCell>
        <mxCell id="lw1P8CRCG-Huqcx5LMZL-80" value="Unsupervised" style="text;html=1;align=center;verticalAlign=middle;resizable=0;points=[];autosize=1;strokeColor=none;fillColor=none;fontSize=18;" vertex="1" parent="1">
          <mxGeometry x="-300" y="310" width="130" height="30" as="geometry" />
        </mxCell>
        <mxCell id="lw1P8CRCG-Huqcx5LMZL-81" value="" style="triangle;whiteSpace=wrap;html=1;rotation=-15;" vertex="1" parent="1">
          <mxGeometry x="-40" y="160" width="60" height="50" as="geometry" />
        </mxCell>
        <mxCell id="lw1P8CRCG-Huqcx5LMZL-82" value="Language models" style="shape=cube;whiteSpace=wrap;html=1;boundedLbl=1;backgroundOutline=1;darkOpacity=0.05;darkOpacity2=0.1;" vertex="1" parent="1">
          <mxGeometry x="590" y="240" width="120" height="80" as="geometry" />
        </mxCell>
        <mxCell id="lw1P8CRCG-Huqcx5LMZL-83" value="Language models" style="shape=cube;whiteSpace=wrap;html=1;boundedLbl=1;backgroundOutline=1;darkOpacity=0.05;darkOpacity2=0.1;" vertex="1" parent="1">
          <mxGeometry x="590" y="270" width="120" height="80" as="geometry" />
        </mxCell>
        <mxCell id="lw1P8CRCG-Huqcx5LMZL-84" value="Language models" style="shape=cube;whiteSpace=wrap;html=1;boundedLbl=1;backgroundOutline=1;darkOpacity=0.05;darkOpacity2=0.1;" vertex="1" parent="1">
          <mxGeometry x="590" y="300" width="120" height="80" as="geometry" />
        </mxCell>
        <mxCell id="lw1P8CRCG-Huqcx5LMZL-85" value="Language models" style="shape=cube;whiteSpace=wrap;html=1;boundedLbl=1;backgroundOutline=1;darkOpacity=0.05;darkOpacity2=0.1;" vertex="1" parent="1">
          <mxGeometry x="590" y="330" width="120" height="80" as="geometry" />
        </mxCell>
        <mxCell id="lw1P8CRCG-Huqcx5LMZL-89" value="Acoustic model&lt;br&gt;(Dcotro 1)" style="shape=cube;whiteSpace=wrap;html=1;boundedLbl=1;backgroundOutline=1;darkOpacity=0.05;darkOpacity2=0.1;" vertex="1" parent="1">
          <mxGeometry x="325" y="-137.5" width="120" height="80" as="geometry" />
        </mxCell>
      </root>
    </mxGraphModel>
  </diagram>
</mxfile>
